<svg width="1440" height="860" viewBox="0 0 1440 860" fill="none" xmlns="http://www.w3.org/2000/svg">
  <rect width="1440" height="860" rx="24" fill="#F4F7F2"/>
  <rect x="32" y="32" width="260" height="796" rx="24" fill="#133B36"/>
  <rect x="64" y="60" width="48" height="48" rx="14" fill="#2A9D8F"/>
  <text x="128" y="92" fill="#F5F7F4" font-size="32" font-family="Arial, sans-serif" font-weight="700">智慧农业管理系统</text>
  <text x="64" y="150" fill="#9EC6BF" font-size="18" font-family="Arial, sans-serif">运营总览 / 温室监测 / 任务中心</text>
  <rect x="48" y="200" width="228" height="56" rx="16" fill="#ECF5F3"/>
  <text x="74" y="236" fill="#123832" font-size="24" font-family="Arial, sans-serif" font-weight="700">数据总览</text>
  <text x="64" y="316" fill="#D9ECE8" font-size="24" font-family="Arial, sans-serif">温室监测</text>
  <text x="64" y="380" fill="#D9ECE8" font-size="24" font-family="Arial, sans-serif">传感器数据</text>
  <text x="64" y="444" fill="#D9ECE8" font-size="24" font-family="Arial, sans-serif">智能建议</text>
  <text x="64" y="508" fill="#D9ECE8" font-size="24" font-family="Arial, sans-serif">任务中心</text>
  <text x="64" y="572" fill="#D9ECE8" font-size="24" font-family="Arial, sans-serif">系统设置</text>

  <rect x="324" y="32" width="1084" height="96" rx="24" fill="#FFFFFF"/>
  <text x="364" y="78" fill="#1E293B" font-size="34" font-family="Arial, sans-serif" font-weight="700">首页运营总览</text>
  <text x="364" y="110" fill="#64748B" font-size="18" font-family="Arial, sans-serif">页面刷新时间 2026-03-12 15:30  ·  数据最新采样时间（+08:00） 2026-03-12 15:25</text>

  <rect x="324" y="152" width="240" height="170" rx="22" fill="#FFFFFF"/>
  <rect x="584" y="152" width="240" height="170" rx="22" fill="#FFFFFF"/>
  <rect x="844" y="152" width="240" height="170" rx="22" fill="#FFFFFF"/>
  <rect x="1104" y="152" width="304" height="170" rx="22" fill="#FFFFFF"/>

  <text x="352" y="196" fill="#94A3B8" font-size="20" font-family="Arial, sans-serif">平均温度</text>
  <text x="352" y="252" fill="#EA580C" font-size="48" font-family="Arial, sans-serif" font-weight="700">24.5°C</text>
  <text x="352" y="292" fill="#64748B" font-size="18" font-family="Arial, sans-serif">最近 24h  ·  样本 3168</text>

  <text x="612" y="196" fill="#94A3B8" font-size="20" font-family="Arial, sans-serif">平均湿度</text>
  <text x="612" y="252" fill="#0F766E" font-size="48" font-family="Arial, sans-serif" font-weight="700">76.0%</text>
  <text x="612" y="292" fill="#64748B" font-size="18" font-family="Arial, sans-serif">最近 24h  ·  样本 3168</text>

  <text x="872" y="196" fill="#94A3B8" font-size="20" font-family="Arial, sans-serif">平均 EC</text>
  <text x="872" y="252" fill="#65A30D" font-size="48" font-family="Arial, sans-serif" font-weight="700">2.80</text>
  <text x="872" y="292" fill="#64748B" font-size="18" font-family="Arial, sans-serif">mS/cm  ·  样本 1440</text>

  <text x="1132" y="196" fill="#94A3B8" font-size="20" font-family="Arial, sans-serif">系统运行态势</text>
  <rect x="1132" y="224" width="236" height="44" rx="14" fill="#EAF7EE"/>
  <text x="1160" y="252" fill="#15803D" font-size="22" font-family="Arial, sans-serif" font-weight="700">数据链路可用</text>
  <text x="1132" y="302" fill="#1E293B" font-size="18" font-family="Arial, sans-serif">分区 11 · 施肥机 5 · 时区 Asia/Shanghai</text>

  <rect x="324" y="350" width="700" height="228" rx="22" fill="#FFFFFF"/>
  <rect x="1048" y="350" width="360" height="228" rx="22" fill="#FFFFFF"/>
  <text x="356" y="392" fill="#1E293B" font-size="28" font-family="Arial, sans-serif" font-weight="700">温室分区态势</text>
  <text x="1080" y="392" fill="#1E293B" font-size="28" font-family="Arial, sans-serif" font-weight="700">系统告警与异常</text>
  <rect x="356" y="430" width="308" height="124" rx="18" fill="#F8FAFC"/>
  <rect x="680" y="430" width="308" height="124" rx="18" fill="#F8FAFC"/>
  <text x="384" y="474" fill="#0F172A" font-size="22" font-family="Arial, sans-serif" font-weight="700">1号温室南区</text>
  <text x="384" y="510" fill="#64748B" font-size="18" font-family="Arial, sans-serif">温度 24.8°C  ·  湿度 74%  ·  风机 正常</text>
  <text x="384" y="542" fill="#64748B" font-size="18" font-family="Arial, sans-serif">天窗 35%  ·  侧幕 15%  ·  喷雾 关闭</text>
  <text x="708" y="474" fill="#0F172A" font-size="22" font-family="Arial, sans-serif" font-weight="700">2号温室北区</text>
  <text x="708" y="510" fill="#64748B" font-size="18" font-family="Arial, sans-serif">温度 23.9°C  ·  湿度 78%  ·  风机 正常</text>
  <text x="708" y="542" fill="#64748B" font-size="18" font-family="Arial, sans-serif">天窗 20%  ·  侧幕 10%  ·  加温 待机</text>

  <rect x="1080" y="430" width="296" height="52" rx="16" fill="#FEF3C7"/>
  <rect x="1080" y="494" width="296" height="52" rx="16" fill="#E0F2FE"/>
  <text x="1108" y="462" fill="#92400E" font-size="18" font-family="Arial, sans-serif">湿度波动偏高，建议复核分区通风策略</text>
  <text x="1108" y="526" fill="#075985" font-size="18" font-family="Arial, sans-serif">AI 智能解析已生成 3 条建议草稿</text>

  <rect x="324" y="606" width="1084" height="222" rx="22" fill="#FFFFFF"/>
  <text x="356" y="648" fill="#1E293B" font-size="28" font-family="Arial, sans-serif" font-weight="700">24 小时趋势与执行器状态</text>
  <polyline points="372,756 456,710 540,698 624,720 708,684 792,666 876,694 960,650 1044,628" stroke="#2A9D8F" stroke-width="6" fill="none" stroke-linecap="round"/>
  <polyline points="372,778 456,768 540,744 624,760 708,738 792,720 876,728 960,706 1044,694" stroke="#F59E0B" stroke-width="6" fill="none" stroke-linecap="round"/>
  <rect x="1110" y="676" width="264" height="112" rx="18" fill="#F8FAFC"/>
  <text x="1140" y="718" fill="#0F172A" font-size="22" font-family="Arial, sans-serif" font-weight="700">设备概览</text>
  <text x="1140" y="752" fill="#64748B" font-size="18" font-family="Arial, sans-serif">锅炉 3 台  ·  气象站 1 套</text>
  <text x="1140" y="782" fill="#64748B" font-size="18" font-family="Arial, sans-serif">施肥机 5 台  ·  执行器在线率 98%</text>
</svg>
