<svg width="1440" height="860" viewBox="0 0 1440 860" fill="none" xmlns="http://www.w3.org/2000/svg">
  <rect width="1440" height="860" rx="24" fill="#F6F8FB"/>
  <rect x="32" y="32" width="660" height="796" rx="24" fill="#FFFFFF"/>
  <rect x="716" y="32" width="692" height="796" rx="24" fill="#FFFFFF"/>
  <text x="72" y="82" fill="#1E293B" font-size="34" font-family="Arial, sans-serif" font-weight="700">病害识别</text>
  <text x="756" y="82" fill="#1E293B" font-size="34" font-family="Arial, sans-serif" font-weight="700">任务中心</text>

  <rect x="72" y="118" width="580" height="220" rx="22" fill="#F8FAFC"/>
  <rect x="102" y="148" width="220" height="160" rx="18" fill="#DCEFF8"/>
  <circle cx="206" cy="228" r="46" fill="#8EC5E8"/>
  <text x="354" y="184" fill="#0F172A" font-size="24" font-family="Arial, sans-serif" font-weight="700">异步上传识别</text>
  <text x="354" y="222" fill="#64748B" font-size="18" font-family="Arial, sans-serif">上传图片后立即返回任务 ID</text>
  <text x="354" y="256" fill="#64748B" font-size="18" font-family="Arial, sans-serif">WebSocket 增量推送状态变化</text>
  <rect x="354" y="282" width="160" height="38" rx="12" fill="#EAF7EE"/>
  <text x="390" y="308" fill="#15803D" font-size="18" font-family="Arial, sans-serif" font-weight="700">DONE / FAILED</text>

  <text x="72" y="388" fill="#1E293B" font-size="28" font-family="Arial, sans-serif" font-weight="700">识别任务列表示意</text>
  <rect x="72" y="426" width="580" height="114" rx="18" fill="#F8FAFC"/>
  <rect x="72" y="556" width="580" height="114" rx="18" fill="#F8FAFC"/>
  <rect x="72" y="686" width="580" height="114" rx="18" fill="#F8FAFC"/>
  <text x="102" y="474" fill="#0F172A" font-size="20" font-family="Arial, sans-serif" font-weight="700">任务 93d7...  ·  DONE  ·  MOBILE</text>
  <text x="102" y="508" fill="#64748B" font-size="17" font-family="Arial, sans-serif">病害类型：番茄叶部病害示例  ·  置信度 92.3%</text>
  <text x="102" y="604" fill="#0F172A" font-size="20" font-family="Arial, sans-serif" font-weight="700">任务 56a0...  ·  PROCESSING  ·  MOBILE</text>
  <text x="102" y="638" fill="#64748B" font-size="17" font-family="Arial, sans-serif">等待异步推理完成，前端实时接收增量更新</text>
  <text x="102" y="734" fill="#0F172A" font-size="20" font-family="Arial, sans-serif" font-weight="700">任务 0a9c...  ·  FAILED  ·  MOBILE</text>
  <text x="102" y="768" fill="#64748B" font-size="17" font-family="Arial, sans-serif">异常原因可追踪，支持失败重试与可观测记录</text>

  <text x="756" y="128" fill="#64748B" font-size="18" font-family="Arial, sans-serif">AI 建议任务、人工任务、自动触发任务统一入中心管理</text>

  <rect x="756" y="166" width="612" height="148" rx="20" fill="#F8FAFC"/>
  <text x="792" y="212" fill="#1E293B" font-size="24" font-family="Arial, sans-serif" font-weight="700">专家审批域</text>
  <text x="792" y="252" fill="#64748B" font-size="18" font-family="Arial, sans-serif">PENDING → APPROVED</text>
  <text x="792" y="286" fill="#64748B" font-size="18" font-family="Arial, sans-serif">支持可选指派工人、保留来源与证据</text>

  <rect x="756" y="338" width="612" height="148" rx="20" fill="#F8FAFC"/>
  <text x="792" y="384" fill="#1E293B" font-size="24" font-family="Arial, sans-serif" font-weight="700">工人执行域</text>
  <text x="792" y="424" fill="#64748B" font-size="18" font-family="Arial, sans-serif">APPROVED → IN_PROGRESS → COMPLETED</text>
  <text x="792" y="458" fill="#64748B" font-size="18" font-family="Arial, sans-serif">结构化完工回填、结果可回查</text>

  <rect x="756" y="510" width="612" height="258" rx="20" fill="#F8FAFC"/>
  <text x="792" y="556" fill="#1E293B" font-size="24" font-family="Arial, sans-serif" font-weight="700">任务闭环示意</text>
  <rect x="792" y="606" width="120" height="54" rx="16" fill="#FEF3C7"/>
  <rect x="960" y="606" width="132" height="54" rx="16" fill="#DBEAFE"/>
  <rect x="1140" y="606" width="150" height="54" rx="16" fill="#E0F2FE"/>
  <rect x="906" y="716" width="260" height="54" rx="16" fill="#EAF7EE"/>
  <text x="826" y="640" fill="#92400E" font-size="18" font-family="Arial, sans-serif" font-weight="700">PENDING</text>
  <text x="996" y="640" fill="#1D4ED8" font-size="18" font-family="Arial, sans-serif" font-weight="700">APPROVED</text>
  <text x="1172" y="640" fill="#0369A1" font-size="18" font-family="Arial, sans-serif" font-weight="700">IN_PROGRESS</text>
  <text x="980" y="750" fill="#15803D" font-size="18" font-family="Arial, sans-serif" font-weight="700">COMPLETED</text>
  <path d="M918 633H948" stroke="#94A3B8" stroke-width="4" stroke-linecap="round"/>
  <path d="M1098 633H1128" stroke="#94A3B8" stroke-width="4" stroke-linecap="round"/>
  <path d="M1214 664L1154 710" stroke="#94A3B8" stroke-width="4" stroke-linecap="round"/>
</svg>
